# xmcd CD database file
#
# Track frame offsets:
#	182
#	14365
#	32545
#	52740
#	64220
#	84305
#	97390
#	115717
#	138970
#	160295
#	170300
#
# Disc length: 2406 seconds
#
# Revision: 0
# Processed by: cddbd v1.5PL3 Copyright (c) Steve Scherf et al.
# Submitted via: CDex 1.51
#
DISCID=8409640b
DTITLE=Louis Armstrong - Louis Armstrong And The Dukes Of Dixieland Vol 1
DYEAR=1900
DGENRE=Jazz
TTITLE0=Bourbon Street Parade
TTITLE1=Back O'town Blues
TTITLE2=Sweethearts On Parade
TTITLE3=Dippermouth Blues
TTITLE4=Riverside Blues
TTITLE5=Bill Bailey
TTITLE6=Someday You'll Be Sorry
TTITLE7=Struttin' With Some Barbeque
TTITLE8=None Of My Jelly Roll
TTITLE9=Cornet Shop Suey
TTITLE10=My Bucket's Got A Hole In It
EXTD=
EXTT0=
EXTT1=
EXTT2=
EXTT3=
EXTT4=
EXTT5=
EXTT6=
EXTT7=
EXTT8=
EXTT9=
EXTT10=
PLAYORDER=
